<svg xmlns="http://www.w3.org/2000/svg" width="101" height="18" fill="none" viewBox="0 0 101 18"><g fill="#111" clip-path="url(#a)"><path d="M1.2645 16.5385C.3695 15.2762-.0747 13.7627 0 12.2308V5.8461c-.1084-1.5484.308-3.0886 1.1855-4.3846C2.0548.4615 3.3983 0 5.374 0c1.9758 0 3.2403.4615 4.0306 1.3077.858 1.0717 1.28 2.4137 1.1854 3.7692v1.5385H6.7175V4.846a3.6927 3.6927 0 0 0-.237-1.5384 1.1207 1.1207 0 0 0-.4565-.4726 1.1635 1.1635 0 0 0-.65-.1428c-.5532 0-.9483.1539-1.1064.5385a4.8458 4.8458 0 0 0-.237 1.6923v8.2307a3.1112 3.1112 0 0 0 .316 1.6154c.1581.3846.5533.5385 1.1065.5385s.8693-.1539 1.0274-.5385a4.3815 4.3815 0 0 0 .237-1.6154v-1.8461H10.59v1.5385c.0804 1.3776-.3392 2.739-1.1854 3.8461-.7904.9231-2.1339 1.3846-4.0306 1.3846-1.8967-.0769-3.3192-.5384-4.1095-1.5384ZM15.2527.2308h4.5047l3.3193 17.5384h-3.6354l-.6322-3.6923h-2.608l-.6322 3.6923h-3.7144L15.2527.2308Zm3.2403 11.5384-.9484-6.8461-.9483 6.8461h1.8967ZM25.8427 3.1538h-2.687V.2308h9.4045v2.8461h-2.687v14.6923h-4.0305V3.1538ZM39.752.2308h6.9546v1.8461h-4.5047v5.7692h3.6353v1.7693h-3.6353v6.4615h4.5047v1.7693h-7.0337V.2308h.0791ZM48.7613.2308H50.5l5.1369 11.6154V.2308h2.0548v17.5384h-1.5806l-5.216-12v12h-2.1338V.2308ZM60.0626.2308h6.9546v1.8461h-4.5047v5.7692h3.6354v1.7693h-3.6354v6.4615h4.5047v1.7693h-6.9546V.2308ZM69.072.2308h3.6354c1.4301-.0962 2.8513.2836 4.0305 1.0769.8693.6923 1.2645 1.923 1.2645 3.5385 0 2.2307-.7113 3.6153-2.2129 4.0769l2.529 8.7692h-2.4499l-2.3709-8.2308h-1.9758v8.2308H68.993V.2308h.079Zm3.4773 7.5384c.8147.0654 1.6268-.1527 2.2919-.6153.4742-.3847.7112-1.1539.7112-2.3077a4.848 4.848 0 0 0-.237-1.6923c-.1779-.3922-.4834-.7166-.8694-.9231a3.69 3.69 0 0 0-1.7386-.3077H71.601v5.7692h.9483v.077ZM81.1635 16.4615c-.8215-1.3449-1.2071-2.8998-1.1064-4.4615V6.1538a12.26 12.26 0 0 1 .3951-3.3077c.2645-.8075.7915-1.5094 1.5016-2 .8824-.5084 1.9004-.7494 2.9241-.6923 1.6596 0 2.8451.3847 3.5564 1.2308.8181 1.1173 1.2095 2.4778 1.1064 3.8462v.6153h-2.3709v-.5384a11.0296 11.0296 0 0 0-.1581-1.923c-.0666-.4017-.2939-.7612-.6322-1A2.4932 2.4932 0 0 0 84.8779 2c-.5666-.0353-1.1275.1284-1.5806.4615a1.746 1.746 0 0 0-.4465.552 1.7011 1.7011 0 0 0-.1857.6788 14.0102 14.0102 0 0 0-.1581 2.077v6.5384a6.818 6.818 0 0 0 .4742 2.9231c.3161.6154.9484.8461 1.8967.8461a1.9588 1.9588 0 0 0 1.0918-.1822c.3375-.1643.6176-.422.8049-.7409a6.9082 6.9082 0 0 0 .5532-3.0769v-1.2307H85.036V9.0769h4.5837v8.6923h-1.5806l-.2371-2c-.2072.6703-.6386 1.2539-1.2257 1.6581-.5871.4042-1.2962.6058-2.0145.5727a4.0458 4.0458 0 0 1-1.8985-.3521c-.5931-.2685-1.1084-.6762-1.4998-1.1864ZM94.6776 11.6154 90.8052.3077h2.3709l2.766 8.4615 2.687-8.4615H101l-3.8725 11.3077v6.1538h-2.3709v-6.1538h-.079Z"/></g><defs><clipPath id="a"><path fill="#fff" d="M0 0h101v18H0z"/></clipPath></defs></svg>