<svg xmlns="http://www.w3.org/2000/svg" width="61" height="60" fill="none" viewBox="0 0 61 60"><path fill="#68B738" d="M.5 0h60v60H.5z"/><path fill="#fff" d="M28.875 16c-1.6313 0-2.9 1.3594-2.9 3.0812 0 1.7219 1.2687 3.0813 2.9 3.0813s2.9-1.3594 2.9-3.0813c0-1.7218-1.2687-3.0812-2.9-3.0812Zm0 1.1781c.9969 0 1.7219.8428 1.7219 1.9031 0 .9969-.7885 1.9032-1.7219 1.9032-.9969 0-1.7219-.8428-1.7219-1.9032 0-.9968.7794-1.9031 1.7219-1.9031ZM18 40.7406c0 1.1782.4078 2.175 1.3594 2.9907.9969.8518 2.175.7793 2.175.7793h19.0312c.7794 0 1.8125-.3806 2.6281-1.45.8429-.9968.7885-2.3562.7885-2.3562V23.4856c0-.435-.1088-.5981-.7431-.5981-.6344 0-.6888.2719-.6888.5891v17.2187c-.0181.2991-.0725 1.0875-.7431 1.7219-.7341.6253-1.45.5437-1.45.5437s-18.125 0-19.0313-.0271c-.3443-.0635-.9062-.1904-1.45-.9063-.5075-.725-.4078-1.6313-.4078-1.6313V23.1775c0-.4622-.2356-.6344-.725-.6344-.4893 0-.7431.1722-.7431.58v17.6175Zm16.3125-16.3125c-1.0875.2356-2.175.3807-4.2594 2.3563-2.0843 1.9937-3.625 1.9031-5.1656 1.8125-1.5406-.0906-3.1719-1.5406-3.4437-1.9031-.3354-.3535-.9063-.1179-1.0876.1178-.154.2356-.154.6434.1088.9968 1.2688 1.1782 2.4469 2.0844 4.7125 2.2657 2.2656.2175 4.4406-.8066 5.8906-2.2657 1.45-1.45 2.175-1.7218 3.2625-1.9031 2.6281-.4169 4.1688.6163 5.075 1.2688.9969 1.0875 1.2688.7793 1.5406.4712.5438-.7159-.2265-1.2687-1.0874-1.9031-1.8125-1.1781-3.5344-1.6313-5.5282-1.2688l-.0181-.0453ZM25.25 31.5875c-1.1781 0-2.0844.9969-2.0844 2.2656 0 1.2688.9063 2.2657 2.0844 2.2657 1.1781 0 2.0844-.9969 2.0844-2.2657 0-1.2687-.9063-2.2656-2.0844-2.2656Zm11.7812.7794c-1.5406 0-2.8093 1.3593-2.8093 2.9906 0 1.6313 1.2687 2.9906 2.8093 2.9906 1.5407 0 2.8094-1.3593 2.8094-2.9906 0-1.6313-1.2687-2.9906-2.8094-2.9906Zm0 1.45c.7976 0 1.4501.6978 1.4501 1.5406 0 .8609-.6525 1.5406-1.4501 1.5406-.7975 0-1.45-.6978-1.45-1.5406 0-.8609.6525-1.5406 1.45-1.5406Z"/></svg>