<svg xmlns="http://www.w3.org/2000/svg" width="61" height="60" fill="none" viewBox="0 0 61 60"><path fill="#68B738" d="M.5 0h60v60H.5z"/><path fill="#fff" fill-rule="evenodd" d="M36.6173 15.0761a1.0002 1.0002 0 0 1 1.0898.2168c.9085.9085 2.0967 2.8777 3.0588 5.9179C41.7373 24.2804 42.5 28.5081 42.5 34c0 .5523-.4477 1-1 1H38v9c0 .5523-.4477 1-1 1s-1-.4477-1-1V16a1 1 0 0 1 .6173-.9239ZM38 33h2.4912c-.0859-4.8164-.7861-8.5125-1.6321-11.1858-.2784-.8796-.5706-1.6427-.8591-2.2952V33ZM24 15c.5523 0 1 .4477 1 1v28c0 .5523-.4477 1-1 1s-1-.4477-1-1V16c0-.5523.4477-1 1-1Z" clip-rule="evenodd"/><path fill="#fff" fill-rule="evenodd" d="M19.5 15c.5523 0 1 .4477 1 1v5.5c0 .5569.192 1.3152.7009 1.9166.4791.5662 1.3136 1.0834 2.799 1.0834.5523 0 1 .4477 1 1s-.4477 1-1 1c-2.0144 0-3.4299-.7328-4.3258-1.7916C18.808 23.6848 18.5 22.4431 18.5 21.5V16c0-.5523.4477-1 1-1Z" clip-rule="evenodd"/><path fill="#fff" fill-rule="evenodd" d="M28.5 15c-.5523 0-1 .4477-1 1v5.5c0 .5569-.192 1.3152-.7009 1.9166-.4791.5662-1.3137 1.0834-2.7992 1.0834-.5523 0-.9998.4477-.9998 1s.4475 1 .9998 1c2.0145 0 3.4301-.7328 4.326-1.7916C29.192 23.6848 29.5 22.4431 29.5 21.5V16c0-.5523-.4477-1-1-1Z" clip-rule="evenodd"/></svg>