<svg xmlns="http://www.w3.org/2000/svg" width="69" height="68" fill="none" viewBox="0 0 69 68"><g filter="url(#a)"><path fill="#68B738" d="M4.5 0h60v60h-60z"/><path fill="#fff" d="M27.538 15c-1.063 0-1.063 1.5831 0 1.5831h6.6435v1.6042C27.3786 18.62 22 24.4142 22 31.4854c0 4.0105 1.7432 7.6305 4.4963 10.0685.4783.4221.5421 1.1715.1063 1.6358l-1.5307 1.5515c-.744.686.3614 1.7519 1.0311 1.0026l1.9984-2.0369c.3507-.3377.8716-.4222 1.3074-.2111a12.7024 12.7024 0 0 0 5.5253 1.2992 12.7045 12.7045 0 0 0 5.5401-1.2359c.4251-.2111.9566-.1266 1.2968.2111l1.9345 1.9736c.6803.6332 1.6583-.3166 1.0417-1.0026l-1.4456-1.4776c-.4464-.4538-.3826-1.2031.1063-1.6359a13.4622 13.4622 0 0 0 3.4027-4.583 13.376 13.376 0 0 0 1.1893-5.5699c0-7.0712-5.4105-12.8759-12.224-13.2875v-1.6042h6.6435c1.0629 0 1.0629-1.5831 0-1.5831H27.538Zm-4.103 16.4748c0-6.5329 5.1766-11.8205 11.5649-11.8205 6.3778 0 11.5544 5.2876 11.5544 11.8205 0 6.5435-5.1766 11.8416-11.5544 11.8416-6.3777 0-11.5649-5.2981-11.5649-11.8416Zm10.7571-8.0949c0-1.0976 1.6582-1.0976 1.6582 0v8.6332a.8413.8413 0 0 1-.2491.597.8534.8534 0 0 1-.6013.2473.8112.8112 0 0 1-.5675-.2312.7995.7995 0 0 1-.2403-.5604v-8.6859Zm-4.9746 2.6174c.3072 0 .6019-.1212.8192-.337a1.146 1.146 0 0 0 .3394-.8134c0-.3051-.1221-.5977-.3394-.8135a1.163 1.163 0 0 0-.8192-.3369 1.1618 1.1618 0 0 0-.7468.3716 1.1458 1.1458 0 0 0-.301.7735c0 .2861.1073.5618.301.7736.1938.2117.46.3441.7468.3715v.0106Zm11.5543 0c.3073 0 .602-.1212.8193-.337a1.1464 1.1464 0 0 0 .3393-.8134c0-.3051-.1221-.5977-.3393-.8135a1.163 1.163 0 0 0-.8193-.3369 1.1613 1.1613 0 0 0-.7467.3716 1.1454 1.1454 0 0 0-.3011.7735c0 .2861.1073.5618.3011.7736.1937.2117.4599.3441.7467.3715v.0106ZM30.3761 38.5882c0 1.5303-2.3173 1.5303-2.3173 0s2.3173-1.5303 2.3173 0Zm4.6238 3.4406a1.1623 1.1623 0 0 0 .89-.2936 1.1528 1.1528 0 0 0 .2804-.3859 1.1446 1.1446 0 0 0 0-.9312 1.1518 1.1518 0 0 0-.2804-.3859 1.1623 1.1623 0 0 0-.89-.2936 1.1614 1.1614 0 0 0-.7467.3715 1.146 1.146 0 0 0-.301.7736c0 .286.1073.5618.301.7735.1937.2118.46.3442.7467.3716Zm-8.089-10.3851a1.1423 1.1423 0 0 1-.0539.4728 1.148 1.148 0 0 1-.2419.4108 1.1582 1.1582 0 0 1-.3887.2784 1.1653 1.1653 0 0 1-1.3264-.2784 1.144 1.144 0 0 1 .0785-1.625 1.163 1.163 0 0 1 .779-.299c.2881 0 .5659.1066.7791.299.2133.1923.3467.4566.3743.7414ZM44.237 32.794a1.1645 1.1645 0 0 0 .89-.2936 1.1518 1.1518 0 0 0 .2804-.3859 1.1443 1.1443 0 0 0-.2804-1.317 1.159 1.159 0 0 0-.4138-.2402 1.1663 1.1663 0 0 0-.4762-.0535 1.1618 1.1618 0 0 0-.7467.3716 1.1459 1.1459 0 0 0-.3011.7735c0 .2861.1074.5619.3011.7736.1937.2117.4599.3442.7467.3715Zm-2.3066 5.8047c0 1.5198-2.3172 1.5198-2.3172-.0105s2.3172-1.5303 2.3172 0v.0105Z"/></g><defs><filter id="a" width="68" height="68" x=".5" y="0" color-interpolation-filters="sRGB" filterUnits="userSpaceOnUse"><feFlood flood-opacity="0" result="BackgroundImageFix"/><feColorMatrix in="SourceAlpha" result="hardAlpha" values="0 0 0 0 0 0 0 0 0 0 0 0 0 0 0 0 0 0 127 0"/><feOffset dy="4"/><feGaussianBlur stdDeviation="2"/><feComposite in2="hardAlpha" operator="out"/><feColorMatrix values="0 0 0 0 0 0 0 0 0 0 0 0 0 0 0 0 0 0 0.25 0"/><feBlend in2="BackgroundImageFix" result="effect1_dropShadow_95_39"/><feBlend in="SourceGraphic" in2="effect1_dropShadow_95_39" result="shape"/></filter></defs></svg>