<svg xmlns="http://www.w3.org/2000/svg" width="27" height="34" fill="none" viewBox="0 0 27 34"><g clip-path="url(#a)"><path fill="#666" d="M13.6426.0158 13.5 0 0 1.4073V26.013L13.5 34 27 26.0129V1.4073L13.6426.0158ZM25.2344 25.015 13.5 31.9573 1.7656 25.0151V14.9293l11.6851 6.9158.0194 1.2533-8.0166-4.7436-.0106 1.2253 8.0465 4.8084.0194 1.2865-8.0447-4.7576-.0106 1.2253L13.5 26.9511l8.1239-4.8329V16.909l3.6193-2.1495-.0088 10.2556Zm0-11.5632-3.2197 1.88-1.4822.8752-7.0659-4.187-.0106 1.2253 6.0397 3.5726-.0528.0315-.1303.0752-.859.4919-4.987-2.9477-.0106 1.2253 3.9361 2.328-.933.6092-.0211.0122-2.9714-1.7416-.0106 1.2253 1.9469 1.1342-1.9874 1.1868-11.6182-6.8721 11.6376-6.9579 11.7995 6.8336Zm0-1.2253L13.4401 5.3108 1.7656 12.2195V2.9897L13.5 1.7644l11.7344 1.2253v9.2369Z"/></g><defs><clipPath id="a"><path fill="#fff" d="M0 0h27v34H0z"/></clipPath></defs></svg>